<svg width="200" height="200" viewBox="0 0 200 200" fill="none" xmlns="http://www.w3.org/2000/svg">
<path fill-rule="evenodd" clip-rule="evenodd" d="M60.7498 101.916L64.6248 109.666C67.9415 116.299 75.7331 122.924 84.7748 126.691L93.3915 130.283L87.4165 136.258C87.3165 136.558 87.1331 137.091 86.8831 137.624C86.5831 138.291 86.0498 139.291 85.1248 140.208L58.4581 166.874C55.5748 169.766 51.9165 169.183 50.1498 168.474C49.0423 168.03 48.0464 167.348 47.2331 166.474C45.9955 165.164 45.299 163.435 45.2831 161.633V148.716H32.3665C29.6248 148.716 26.2831 147.291 24.8998 143.849C24.5245 142.917 24.347 141.918 24.3786 140.913C24.4101 139.909 24.6501 138.923 25.0831 138.016C25.6556 136.826 26.5253 135.805 27.6081 135.049L60.7498 101.916ZM72.9248 134.733L57.7831 149.874V136.208H44.1165L58.0415 122.291C62.2245 127.289 67.2643 131.502 72.9248 134.733ZM138.783 108.874C139.955 107.704 141.544 107.047 143.2 107.047C144.856 107.047 146.445 107.704 147.616 108.874L173.45 134.708C176.333 137.591 175.75 141.249 175.05 143.016C174.606 144.124 173.923 145.119 173.05 145.933C171.736 147.169 170.004 147.863 168.2 147.874H154.45V161.624C154.45 164.374 153.033 167.724 149.583 169.099C148.651 169.473 147.651 169.649 146.646 169.616C145.642 169.583 144.656 169.342 143.75 168.908C142.563 168.334 141.545 167.464 140.791 166.383L114.616 140.216L112.95 138.549C111.846 137.365 111.245 135.798 111.273 134.178C111.302 132.559 111.958 131.014 113.103 129.869C114.248 128.724 115.793 128.068 117.412 128.04C119.031 128.011 120.598 128.612 121.783 129.716L141.95 149.874V135.374H156.45L138.783 117.708C137.613 116.536 136.955 114.947 136.955 113.291C136.955 111.635 137.613 110.046 138.783 108.874Z" fill="url(#paint0_linear_472_6961)"/>
<path fill-rule="evenodd" clip-rule="evenodd" d="M44.4502 86.6328C44.4502 55.6745 69.7502 30.3828 100.7 30.3828C131.65 30.3828 156.95 55.6745 156.95 86.6328C156.95 98.0078 153.167 108.341 147.609 116.708C141.059 126.966 130.767 135.433 118.442 139.249C112.722 141.15 106.727 142.094 100.7 142.041C93.4752 142.041 86.7502 141.141 79.9085 138.208C78.4023 137.544 77.2186 136.313 76.6146 134.782C76.0105 133.251 76.0349 131.543 76.6823 130.03C77.3298 128.517 78.5481 127.32 80.0727 126.699C81.5973 126.079 83.305 126.085 84.8252 126.716C89.6585 128.783 94.5919 129.549 100.7 129.549C105.884 129.549 110.217 128.816 114.559 127.366L114.625 127.341L114.7 127.324C123.992 124.466 131.992 117.966 137.1 109.941L137.134 109.883L137.167 109.833C141.584 103.199 144.45 95.2245 144.45 86.6328C144.45 62.5828 124.75 42.8828 100.7 42.8828C76.6502 42.8828 56.9502 62.5828 56.9502 86.6328C56.9502 94.6078 59.1169 101.908 62.8335 108.591C63.2324 109.308 63.4861 110.097 63.5801 110.913C63.6741 111.728 63.6066 112.554 63.3814 113.343C63.1563 114.133 62.7778 114.87 62.2677 115.513C61.7576 116.156 61.1259 116.692 60.4085 117.091C59.6912 117.49 58.9023 117.744 58.0869 117.838C57.2715 117.932 56.4456 117.864 55.6563 117.639C54.867 117.414 54.1298 117.035 53.4867 116.525C52.8437 116.015 52.3074 115.383 51.9085 114.666C47.2835 106.349 44.4502 96.9828 44.4502 86.6328Z" fill="url(#paint1_linear_472_6961)"/>
<defs>
<linearGradient id="paint0_linear_472_6961" x1="62.2273" y1="144.771" x2="95.8906" y2="18.2325" gradientUnits="userSpaceOnUse">
<stop stop-color="white"/>
<stop offset="1" stop-color="#E1C78F" stop-opacity="0"/>
</linearGradient>
<linearGradient id="paint1_linear_472_6961" x1="72.6054" y1="101.061" x2="170.393" y2="-64.7195" gradientUnits="userSpaceOnUse">
<stop stop-color="white"/>
<stop offset="1" stop-color="#E1C78F" stop-opacity="0"/>
</linearGradient>
</defs>
</svg>
