<svg width="169" height="200" viewBox="0 0 169 200" fill="none" xmlns="http://www.w3.org/2000/svg">
<path fill-rule="evenodd" clip-rule="evenodd" d="M110.375 39.1253C107.528 36.5371 103.819 35.1029 99.971 35.1029C96.1233 35.1029 92.4138 36.5371 89.5668 39.1253L89.5168 39.1753L48.0001 75.7003C43.1585 80.6003 39.9585 87.3587 39.9585 93.6503V152.817C39.9585 159.359 45.5001 164.9 52.0418 164.9H147.875C155.575 164.9 160.475 159.184 159.983 153.334L159.958 153.075V93.6503C159.958 86.9503 157.292 80.392 152.092 75.8503L152.083 75.842L110.375 39.1253ZM118.708 29.8087C113.57 25.1708 106.893 22.6035 99.971 22.6035C93.0487 22.6035 86.3723 25.1708 81.2335 29.8087L39.4418 66.5837L39.3001 66.7253C32.5501 73.4753 27.4668 83.3253 27.4668 93.642V152.809C27.5105 159.315 30.1145 165.543 34.7153 170.143C39.3162 174.744 45.5437 177.348 52.0501 177.392H147.883C161.767 177.392 173.467 166.584 172.467 152.575V93.642C172.467 83.6837 168.483 73.5753 160.342 66.4503L118.708 29.8087Z" fill="url(#paint0_linear_472_6980)"/>
<path fill-rule="evenodd" clip-rule="evenodd" d="M100.383 89.9004C97.6208 89.9004 94.9713 90.9979 93.0178 92.9514C91.0643 94.9049 89.9668 97.5544 89.9668 100.317C89.9668 103.08 91.0643 105.729 93.0178 107.683C94.9713 109.636 97.6208 110.734 100.383 110.734C103.146 110.734 105.796 109.636 107.749 107.683C109.703 105.729 110.8 103.08 110.8 100.317C110.8 97.5544 109.703 94.9049 107.749 92.9514C105.796 90.9979 103.146 89.9004 100.383 89.9004ZM77.4668 100.317C77.4668 94.2392 79.8812 88.4102 84.1789 84.1125C88.4766 79.8148 94.3056 77.4004 100.383 77.4004C106.461 77.4004 112.29 79.8148 116.588 84.1125C120.886 88.4102 123.3 94.2392 123.3 100.317C123.3 106.395 120.886 112.224 116.588 116.522C112.29 120.819 106.461 123.234 100.383 123.234C94.3056 123.234 88.4766 120.819 84.1789 116.522C79.8812 112.224 77.4668 106.395 77.4668 100.317Z" fill="url(#paint1_linear_472_6980)"/>
<defs>
<linearGradient id="paint0_linear_472_6980" x1="63.7706" y1="120.58" x2="203.872" y2="-100.346" gradientUnits="userSpaceOnUse">
<stop stop-color="#B78E39"/>
<stop offset="1" stop-color="#E1C78F" stop-opacity="0"/>
</linearGradient>
<linearGradient id="paint1_linear_472_6980" x1="88.9374" y1="106.412" x2="129.221" y2="38.6278" gradientUnits="userSpaceOnUse">
<stop stop-color="#B78E39"/>
<stop offset="1" stop-color="#E1C78F" stop-opacity="0"/>
</linearGradient>
</defs>
</svg>
