<svg width="169" height="200" viewBox="0 0 169 200" fill="none" xmlns="http://www.w3.org/2000/svg">
<path fill-rule="evenodd" clip-rule="evenodd" d="M62.5004 35.417C55.3255 35.4433 48.4521 38.3052 43.3786 43.3786C38.3052 48.452 35.4434 55.3255 35.417 62.5003V100C35.4093 108.484 37.0746 116.885 40.3175 124.724C43.5604 132.563 48.3173 139.686 54.3159 145.685C60.3146 151.683 67.4372 156.44 75.2763 159.683C83.1154 162.926 91.517 164.591 100 164.584C134.884 164.584 164.584 134.884 164.584 100V62.5003C164.557 55.3255 161.695 48.452 156.622 43.3786C151.549 38.3052 144.675 35.4433 137.5 35.417H62.5004ZM22.917 62.5003C22.9434 52.0103 27.1223 41.9574 34.5399 34.5398C41.9575 27.1222 52.0103 22.9434 62.5004 22.917H137.5C147.99 22.9434 158.043 27.1222 165.461 34.5398C172.878 41.9574 177.057 52.0103 177.084 62.5003V100C177.084 141.784 141.784 177.084 100 177.084C89.8755 177.091 79.8484 175.103 70.4928 171.232C61.1371 167.361 52.6365 161.683 45.4771 154.524C38.3177 147.364 32.6401 138.864 28.769 129.508C24.8979 120.152 22.9093 110.125 22.917 100V62.5003Z" fill="url(#paint0_linear_472_6968)"/>
<defs>
<linearGradient id="paint0_linear_472_6968" x1="61.5" y1="120.5" x2="197" y2="-107.5" gradientUnits="userSpaceOnUse">
<stop stop-color="#B78E39"/>
<stop offset="1" stop-color="#E1C78F" stop-opacity="0"/>
</linearGradient>
</defs>
</svg>
