<svg width="200" height="200" viewBox="0 0 200 200" fill="none" xmlns="http://www.w3.org/2000/svg">
<path fill-rule="evenodd" clip-rule="evenodd" d="M99.1667 30.417C94.844 30.417 90.5636 31.2684 86.57 32.9226C82.5764 34.5768 78.9477 37.0015 75.8911 40.0581C72.8345 43.1147 70.4099 46.7434 68.7556 50.737C67.1014 54.7306 66.25 59.011 66.25 63.3337C66.25 67.6563 67.1014 71.9367 68.7556 75.9303C70.4099 79.924 72.8345 83.5527 75.8911 86.6093C78.9477 89.6659 82.5764 92.0905 86.57 93.7447C90.5636 95.3989 94.844 96.2503 99.1667 96.2503C107.897 96.2503 116.269 92.7823 122.442 86.6093C128.615 80.4362 132.083 72.0637 132.083 63.3337C132.083 54.6036 128.615 46.2311 122.442 40.0581C116.269 33.885 107.897 30.417 99.1667 30.417ZM53.75 63.3337C53.75 57.3695 54.9247 51.4637 57.2071 45.9535C59.4895 40.4432 62.8349 35.4366 67.0522 31.2192C71.2696 27.0019 76.2763 23.6565 81.7865 21.3741C87.2967 19.0917 93.2025 17.917 99.1667 17.917C105.131 17.917 111.037 19.0917 116.547 21.3741C122.057 23.6565 127.064 27.0019 131.281 31.2192C135.498 35.4366 138.844 40.4432 141.126 45.9535C143.409 51.4637 144.583 57.3695 144.583 63.3337C144.583 75.3789 139.798 86.9308 131.281 95.4481C122.764 103.965 111.212 108.75 99.1667 108.75C87.1214 108.75 75.5695 103.965 67.0522 95.4481C58.535 86.9308 53.75 75.3789 53.75 63.3337Z" fill="url(#paint0_linear_472_6974)"/>
<path fill-rule="evenodd" clip-rule="evenodd" d="M86.667 108.75C66.7837 108.75 50.417 125.117 50.417 145C50.406 148.231 51.0343 151.433 52.2659 154.421C53.4974 157.408 55.3078 160.123 57.5927 162.408C59.8777 164.693 62.5921 166.503 65.5797 167.734C68.5672 168.966 71.7689 169.594 75.0003 169.583H124.167C138 169.583 148.834 158.408 149.584 144.842C149.5 125.033 133.167 108.75 113.334 108.75H86.667ZM37.917 145C37.917 118.217 59.8837 96.25 86.667 96.25H113.334C140.117 96.25 162.084 118.217 162.084 145V145.308C161.084 165.017 145.284 182.083 124.167 182.083H75.0003C53.942 182.083 37.917 165.008 37.917 145Z" fill="url(#paint1_linear_472_6974)"/>
<defs>
<linearGradient id="paint0_linear_472_6974" x1="76.4827" y1="75.4118" x2="156.318" y2="-58.9233" gradientUnits="userSpaceOnUse">
<stop stop-color="#B78E39"/>
<stop offset="1" stop-color="#E1C78F" stop-opacity="0"/>
</linearGradient>
<linearGradient id="paint1_linear_472_6974" x1="68.992" y1="150.58" x2="129.371" y2="3.61026" gradientUnits="userSpaceOnUse">
<stop stop-color="#B78E39"/>
<stop offset="1" stop-color="#E1C78F" stop-opacity="0"/>
</linearGradient>
</defs>
</svg>
